<?xml version="1.0" encoding="UTF-8" standalone="no"?>
<!-- Created with Inkscape (http://www.inkscape.org/) -->

<svg
   xmlns:dc="http://purl.org/dc/elements/1.1/"
   xmlns:cc="http://creativecommons.org/ns#"
   xmlns:rdf="http://www.w3.org/1999/02/22-rdf-syntax-ns#"
   xmlns:svg="http://www.w3.org/2000/svg"
   xmlns="http://www.w3.org/2000/svg"
   xmlns:sodipodi="http://sodipodi.sourceforge.net/DTD/sodipodi-0.dtd"
   xmlns:inkscape="http://www.inkscape.org/namespaces/inkscape"
   width="625"
   height="335"
   viewBox="0 0 625.00001 335.00001"
   id="svg2"
   version="1.1"
   inkscape:version="0.91 r13725"
   sodipodi:docname="ytbox_black.svg">
  <defs
     id="defs4" />
  <sodipodi:namedview
     id="base"
     pagecolor="#ffffff"
     bordercolor="#666666"
     borderopacity="1.0"
     inkscape:pageopacity="0.0"
     inkscape:pageshadow="2"
     inkscape:zoom="1.979899"
     inkscape:cx="399.98295"
     inkscape:cy="266.33585"
     inkscape:document-units="px"
     inkscape:current-layer="layer1"
     showgrid="false"
     inkscape:snap-midpoints="true"
     inkscape:snap-text-baseline="true"
     inkscape:window-width="3200"
     inkscape:window-height="1706"
     inkscape:window-x="0"
     inkscape:window-y="46"
     inkscape:window-maximized="1"
     units="px" />
  <metadata
     id="metadata7">
    <rdf:RDF>
      <cc:Work
         rdf:about="">
        <dc:format>image/svg+xml</dc:format>
        <dc:type
           rdf:resource="http://purl.org/dc/dcmitype/StillImage" />
        <dc:title></dc:title>
      </cc:Work>
    </rdf:RDF>
  </metadata>
  <g
     id="g3496"
     inkscape:groupmode="layer"
     inkscape:label="bg"
     style="display:inline"
     transform="translate(0,-717.36216)">
    <flowRoot
       style="font-style:normal;font-weight:normal;font-size:40px;line-height:125%;font-family:sans-serif;letter-spacing:0px;word-spacing:0px;fill:#000000;fill-opacity:1;stroke:none;stroke-width:1px;stroke-linecap:butt;stroke-linejoin:miter;stroke-opacity:1"
       id="flowRoot3498"
       xml:space="preserve"><flowRegion
         id="flowRegion3500"><rect
           y="-370.49493"
           x="194.28572"
           height="345.71429"
           width="974.28571"
           id="rect3502" /></flowRegion><flowPara
         id="flowPara3504" /></flowRoot>  </g>
  <g
     inkscape:label="ytbox"
     inkscape:groupmode="layer"
     id="layer1"
     style="display:inline"
     transform="translate(0,-717.36216)">
    <flowRoot
       xml:space="preserve"
       id="flowRoot3336"
       style="font-style:normal;font-weight:normal;font-size:40px;line-height:125%;font-family:sans-serif;letter-spacing:0px;word-spacing:0px;fill:#000000;fill-opacity:1;stroke:none;stroke-width:1px;stroke-linecap:butt;stroke-linejoin:miter;stroke-opacity:1"><flowRegion
         id="flowRegion3338"><rect
           id="rect3340"
           width="974.28571"
           height="345.71429"
           x="194.28572"
           y="-370.49493" /></flowRegion><flowPara
         id="flowPara3342" /></flowRoot>    <flowRoot
       xml:space="preserve"
       id="flowRoot3624"
       style="font-style:normal;font-weight:normal;font-size:40px;line-height:125%;font-family:sans-serif;letter-spacing:0px;word-spacing:0px;fill:#000000;fill-opacity:1;stroke:none;stroke-width:1px;stroke-linecap:butt;stroke-linejoin:miter;stroke-opacity:1"><flowRegion
         id="flowRegion3626"><rect
           id="rect3628"
           width="256.57874"
           height="204.05081"
           x="207.08127"
           y="258.38229" /></flowRegion><flowPara
         id="flowPara3630" /></flowRoot>    <g
       id="g4400"
       inkscape:export-xdpi="90"
       inkscape:export-ydpi="90"
       style="fill:#000000"
       transform="translate(-59.068359,526.2645)">
      <path
         id="rect3372"
         d="m 74.068359,206.09766 0,160 160.000001,0 0,-160 -160.000001,0 z m 15,15 130.000001,0 0,130 -130.000001,0 0,-130 z m 30.855471,16.00195 c 3.63297,12.50829 8.23194,25.06802 13.79492,37.67969 5.56298,12.50829 11.52317,24.23959 17.88086,35.19726 -2.6112,5.06534 -5.5067,8.68461 -8.68555,10.85547 -3.06531,2.27424 -7.37842,3.41211 -12.9414,3.41211 -1.58943,0 -3.34929,-0.15667 -5.2793,-0.4668 -1.81648,-0.31012 -3.23604,-0.72336 -4.25781,-1.24023 l -2.55469,10.38867 c 0.90824,0.4135 2.61171,0.87961 5.10937,1.39649 2.6112,0.51687 4.99527,0.77539 7.15235,0.77539 4.20062,0 7.9459,-0.46612 11.23828,-1.39649 3.29238,-0.93037 6.24427,-2.37768 8.85547,-4.34179 2.61119,-1.96412 4.99527,-4.44356 7.15234,-7.44141 2.27061,-2.99786 4.37077,-6.56425 6.30078,-10.69922 5.10886,-10.75093 9.87701,-22.43326 14.30469,-35.04492 4.54121,-12.61167 8.62875,-25.63556 12.26172,-39.07422 l -14.64453,0 c -1.4759,5.47884 -2.89545,10.69819 -4.25781,15.66016 -1.36237,4.85859 -2.72553,9.6647 -4.0879,14.41992 -1.36236,4.65184 -2.83831,9.30519 -4.42773,13.95703 -1.58942,4.65184 -3.29094,9.35416 -5.10742,14.10937 -2.49767,-4.65184 -4.88174,-9.50888 -7.15235,-14.57421 -2.15707,-5.16873 -4.20084,-10.28623 -6.13085,-15.35157 -1.93002,-5.06534 -3.68988,-9.97525 -5.2793,-14.73047 -1.47589,-4.85859 -2.78267,-9.35526 -3.91797,-13.49023 l -15.32617,0 z"
         style="fill:#000000"
         inkscape:connector-curvature="0" />
      <path
         inkscape:connector-curvature="0"
         id="rect3510"
         d="m 219.06854,206.09808 0,160 160,0 0,-160 -160,0 z m 15,15 130,0 0,130 -130,0 0,-130 z m 62.70117,17.00976 -13.96484,2.16992 0,20.15821 -16.6875,0 0,10.69922 16.6875,0 0,33.49414 c 0,4.85859 0.39865,9.14766 1.19336,12.86914 0.79471,3.6181 2.21231,6.66745 4.25586,9.14843 2.15707,2.48099 5.10897,4.34154 8.85547,5.58204 3.74649,1.24049 8.57298,1.86132 14.47656,1.86132 5.10886,0 9.36557,-0.51703 12.77148,-1.55078 3.51944,-1.03374 6.07464,-1.86022 7.66406,-2.48047 l -2.04492,-10.85547 c -2.2706,1.03375 -4.65468,1.86218 -7.15234,2.48243 -2.49767,0.62024 -5.78987,0.92968 -9.87695,0.92968 -2.95179,0 -5.44865,-0.25851 -7.49219,-0.77539 -2.04355,-0.51687 -3.74701,-1.44715 -5.10938,-2.79101 -1.24883,-1.44724 -2.15695,-3.3078 -2.72461,-5.58203 -0.56765,-2.27424 -0.85156,-5.21979 -0.85156,-8.83789 l 0,-33.49414 33.37695,0 0,-10.69922 -33.37695,0 0,-22.32813 z"
         style="fill:#000000" />
      <path
         id="rect3510-6"
         d="m 219.06836,351.09766 0,160 160,0 0,-160 -160,0 z m 15,15 130,0 0,130 -130,0 0,-130 z m 47.54492,3.82812 -14.13476,2.17188 0,103.26953 c 2.95178,0.82699 6.86819,1.65542 11.75,2.48242 4.8818,0.82699 10.44528,1.24023 16.68945,1.24023 5.67651,0 10.84135,-0.87935 15.49609,-2.63672 4.65474,-1.75735 8.6295,-4.23875 11.92188,-7.44335 3.29237,-3.30798 5.84562,-7.28761 7.66211,-11.93946 1.81648,-4.65184 2.72656,-9.87119 2.72656,-15.66015 0,-5.58222 -0.79534,-10.6488 -2.38477,-15.19727 -1.47589,-4.65184 -3.69079,-8.63147 -6.64257,-11.93945 -2.83826,-3.30798 -6.35602,-5.89122 -10.55665,-7.75196 -4.2006,-1.86073 -8.97071,-2.79101 -14.30664,-2.79101 -3.97355,0 -7.60606,0.51704 -10.89843,1.55078 -3.17885,0.93037 -5.61931,1.86065 -7.32227,2.79102 l 0,-38.14649 z m 16.51953,45.12305 c 3.7465,0 6.92396,0.67176 9.53516,2.01562 2.72472,1.34387 4.93962,3.20443 6.64258,5.58203 1.70295,2.27424 2.95138,5.06703 3.74609,8.375 0.79471,3.20461 1.19141,6.6672 1.19141,10.38868 0,8.78681 -2.21295,15.40256 -6.64063,19.84765 -4.42768,4.34172 -10.55899,6.51172 -18.39258,6.51172 -1.93001,0 -3.97378,-0.10184 -6.13086,-0.30859 -2.15707,-0.31013 -4.31362,-0.72532 -6.4707,-1.24219 l 0,-45.58789 c 1.58942,-1.34387 3.91711,-2.58359 6.98242,-3.7207 3.06532,-1.2405 6.24474,-1.86133 9.53711,-1.86133 z"
         style="fill:#000000"
         inkscape:connector-curvature="0" />
      <path
         id="rect3510-6-3"
         d="m 364.06836,351.09766 0,160 160,0 0,-160 -160,0 z m 15,15 130,0 0,130 -130,0 0,-130 z m 63.72266,37.63281 c -5.10887,0 -9.87701,0.93028 -14.30469,2.79101 -4.31415,1.75737 -8.06139,4.28968 -11.24024,7.59766 -3.17884,3.2046 -5.6757,7.13331 -7.49218,11.78516 -1.70296,4.65184 -2.55469,9.82027 -2.55469,15.50586 0,5.68558 0.85173,10.85401 2.55469,15.50586 1.81648,4.54846 4.31334,8.47717 7.49218,11.78515 3.17885,3.30798 6.92609,5.89123 11.24024,7.75195 4.42768,1.75737 9.19582,2.63672 14.30469,2.63672 5.22239,0 10.04692,-0.87935 14.4746,-2.63672 4.4277,-1.86072 8.23131,-4.44397 11.41016,-7.75195 3.17885,-3.30798 5.61931,-7.23669 7.32227,-11.78515 1.81648,-4.65185 2.72656,-9.82028 2.72656,-15.50586 0,-5.68559 -0.91008,-10.85402 -2.72656,-15.50586 -1.70296,-4.65185 -4.14342,-8.58056 -7.32227,-11.78516 -3.17885,-3.30798 -6.98247,-5.84029 -11.41016,-7.59766 -4.42768,-1.86073 -9.25221,-2.79101 -14.4746,-2.79101 z m 0,11.31836 c 6.58475,0 11.80794,2.37759 15.66796,7.13281 3.86003,4.65184 5.78907,11.06195 5.78907,19.22852 0,8.06319 -1.92904,14.47134 -5.78907,19.22656 -3.86002,4.65184 -9.08321,6.97851 -15.66796,6.97851 -6.47123,0 -11.63607,-2.32667 -15.4961,-6.97851 -3.7465,-4.75522 -5.62109,-11.16337 -5.62109,-19.22656 0,-8.16657 1.87459,-14.57668 5.62109,-19.22852 3.86003,-4.75522 9.02487,-7.13281 15.4961,-7.13281 z"
         style="fill:#000000"
         inkscape:connector-curvature="0" />
      <path
         style="fill:#000000"
         inkscape:connector-curvature="0"
         id="rect3510-6-3-3"
         d="m 509.06836,351.09766 0,160 160,0 0,-160 -160,0 z m 15,15 130,0 0,130 -130,0 0,-130 z m 27.44922,39.33789 28.43945,34.11328 c -5.22239,5.89233 -10.55836,12.14576 -16.00781,18.76172 -5.33592,6.51258 -9.87655,12.87176 -13.62305,19.07422 l 14.47461,0 c 1.24883,-1.96412 2.78313,-4.18699 4.59961,-6.66797 1.81648,-2.48099 3.74552,-5.0133 5.78906,-7.59766 2.15708,-2.68773 4.37002,-5.32384 6.64063,-7.9082 2.2706,-2.58436 4.42911,-5.06575 6.47265,-7.44336 2.04355,2.27423 4.08732,4.70275 6.13086,7.28711 2.15708,2.58436 4.20085,5.22047 6.13086,7.9082 1.93002,2.58436 3.68792,5.11667 5.27735,7.59766 1.70295,2.48098 3.12251,4.75673 4.25781,6.82422 l 15.66797,0 c -3.63297,-6.40921 -8.06081,-12.92311 -13.2832,-19.53907 -5.10888,-6.61595 -10.21732,-12.97318 -15.32618,-19.07226 l 26.05469,-33.33789 -14.98633,0 -19.58398,25.11914 -21.28711,-25.11914 -15.83789,0 z" />
    </g>
  </g>
</svg>
