<?xml version="1.0" encoding="UTF-8" standalone="no"?>
<svg
   xmlns:dc="http://purl.org/dc/elements/1.1/"
   xmlns:cc="http://creativecommons.org/ns#"
   xmlns:rdf="http://www.w3.org/1999/02/22-rdf-syntax-ns#"
   xmlns:svg="http://www.w3.org/2000/svg"
   xmlns="http://www.w3.org/2000/svg"
   id="svg8"
   version="1.1"
   viewBox="0 0 929.31592 408.66549"
   height="408.6655mm"
   width="929.31592mm">
  <defs
     id="defs2" />
  <metadata
     id="metadata5">
    <rdf:RDF>
      <cc:Work
         rdf:about="">
        <dc:format>image/svg+xml</dc:format>
        <dc:type
           rdf:resource="http://purl.org/dc/dcmitype/StillImage" />
        <dc:title></dc:title>
      </cc:Work>
    </rdf:RDF>
  </metadata>
  <g
     transform="translate(318.14599,30.04432)"
     style="display:none"
     id="layer1">
    <g
       id="g847">
      <rect
         style="opacity:1;fill:#000000;fill-opacity:1;fill-rule:nonzero;stroke:none;stroke-width:5.93030071;stroke-linecap:square;stroke-linejoin:round;stroke-miterlimit:4;stroke-dasharray:none;stroke-dashoffset:0;stroke-opacity:1;paint-order:stroke fill markers"
         id="rect815"
         width="397.63873"
         height="376.11862"
         x="-285.1387"
         y="-4.3147902"
         ry="30"
         rx="30"
         transform="rotate(5.7577436)" />
      <text
         xml:space="preserve"
         style="font-style:normal;font-variant:normal;font-weight:normal;font-stretch:normal;font-size:88.2638092px;line-height:36.77658463px;font-family:Ubuntu;-inkscape-font-specification:Ubuntu;letter-spacing:0px;word-spacing:0px;fill:#ffffff;fill-opacity:1;stroke:none;stroke-width:1.47106338px;stroke-linecap:butt;stroke-linejoin:miter;stroke-opacity:1"
         x="-240.73796"
         y="244.2039"
         id="text819"><tspan
           id="tspan817"
           x="-240.73796"
           y="244.2039"
           style="font-style:normal;font-variant:normal;font-weight:bold;font-stretch:normal;font-size:282.44418335px;font-family:Ubuntu;-inkscape-font-specification:'Ubuntu Bold';fill:#ffffff;stroke-width:1.47106338px">yt</tspan></text>
      <text
         id="text1140"
         y="303.6188"
         x="103.63232"
         style="font-style:normal;font-variant:normal;font-weight:normal;font-stretch:normal;font-size:88.2638092px;line-height:36.77658463px;font-family:Ubuntu;-inkscape-font-specification:Ubuntu;letter-spacing:0px;word-spacing:0px;fill:#000000;fill-opacity:1;stroke:none;stroke-width:1.47106338px;stroke-linecap:butt;stroke-linejoin:miter;stroke-opacity:1"
         xml:space="preserve"><tspan
           style="font-style:normal;font-variant:normal;font-weight:bold;font-stretch:normal;font-size:282.44418335px;font-family:Ubuntu;-inkscape-font-specification:'Ubuntu Bold';fill:#000000;stroke-width:1.47106338px"
           y="303.6188"
           x="103.63232"
           id="tspan1138">box</tspan></text>
      <rect
         rx="15.662313"
         ry="30"
         y="337.01715"
         x="33.942234"
         height="41.604076"
         width="375.73587"
         id="rect837"
         style="opacity:1;fill:#000000;fill-opacity:1;fill-rule:nonzero;stroke:none;stroke-width:1.91725206;stroke-linecap:square;stroke-linejoin:round;stroke-miterlimit:4;stroke-dasharray:none;stroke-dashoffset:0;stroke-opacity:1;paint-order:stroke fill markers" />
    </g>
  </g>
  <g
     transform="translate(55.420387,-122.30261)"
     style="display:inline"
     id="layer2">
    <g
       id="g968">
      <path
         style="opacity:1;fill:#ffffff;fill-opacity:1;fill-rule:nonzero;stroke:none;stroke-width:5.93030071;stroke-linecap:square;stroke-linejoin:round;stroke-miterlimit:4;stroke-dasharray:none;stroke-dashoffset:0;stroke-opacity:1;paint-order:stroke fill markers"
         d="m 6.2311441,122.30261 c -15.2415006,0.002 -28.2195271,11.49158 -29.7826781,26.99422 l -31.713825,314.52344 c -1.667362,16.53614 10.303036,31.19109 26.839187,32.85844 l 335.935052,33.87288 c 0.76798,0.0774 1.53204,0.12521 2.29082,0.14468 0.82367,0.17634 1.66833,0.27183 2.53058,0.27183 h 344.41103 c 8.67693,0 15.66259,-9.27751 15.66259,-20.80183 0,-11.52432 -6.98566,-20.80234 -15.66259,-20.80234 H 341.81428 l 30.26688,-300.17496 c 1.66737,-16.53616 -10.30251,-31.1911 -26.83868,-32.85846 L 9.3069253,122.45764 C 8.273416,122.35343 7.2472441,122.30249 6.2311441,122.30261 Z M 236.92714,204.20614 v 43.77924 h 50.55762 v 35.02266 h -50.55762 v 52.25264 c 0,8.84992 1.50636,15.9109 4.5191,21.1832 3.20104,5.27228 9.5091,7.90856 18.92391,7.90856 4.51912,0 9.13258,-0.37698 13.83999,-1.13017 4.89569,-0.94149 9.32043,-2.16524 13.27462,-3.67162 l 5.93143,32.76338 c -5.08399,2.07126 -10.73298,3.86024 -16.94677,5.36659 -6.21377,1.50638 -13.83945,2.25931 -22.87767,2.25931 -11.48606,0 -20.99509,-1.50638 -28.52694,-4.51911 -7.53184,-3.20104 -13.55731,-7.53139 -18.07641,-12.99197 -4.51911,-5.64888 -7.72007,-12.4278 -9.60303,-20.33622 -1.69467,-7.90845 -2.54197,-16.66404 -2.54197,-26.26714 V 210.98505 Z M 24.811922,247.98538 h 44.626216 c 1.88296,7.34354 4.048395,15.3457 6.496243,24.00732 2.636147,8.47333 5.36679,17.13505 8.191233,25.98496 2.82444,8.66164 5.648425,17.13513 8.472868,25.42016 3.012737,8.28503 5.837238,15.81687 8.473388,22.59553 2.44784,-6.77866 4.98974,-14.3105 7.62589,-22.59553 2.63614,-8.28503 5.17856,-16.75852 7.6264,-25.42016 2.63615,-8.84991 5.08367,-17.51163 7.34323,-25.98496 2.44784,-8.66162 4.61328,-16.66378 6.49624,-24.00732 h 43.49657 c -8.47333,28.62101 -17.32329,55.45299 -26.5498,80.49639 -9.22651,25.04336 -19.30024,49.33346 -30.22141,72.87048 -3.95422,8.47331 -7.90862,15.6287 -11.86284,21.46585 -3.95422,6.02549 -8.285089,10.92105 -12.992492,14.68697 -4.707403,3.95423 -10.073799,6.77873 -16.099277,8.47339 -5.837179,1.88296 -12.70994,2.82464 -20.618378,2.82464 -6.590363,0 -12.709686,-0.65908 -18.35857,-1.97715 -5.460587,-1.12977 -9.980202,-2.4479 -13.557828,-3.95428 l 7.343737,-33.61087 c 4.330811,1.50638 8.190841,2.54191 11.580172,3.10679 3.389331,0.56489 6.967273,0.84749 10.733196,0.84749 7.531843,0 13.274704,-2.07105 17.22892,-6.21358 4.142515,-3.9542 7.626086,-9.50936 10.450526,-16.6646 C 71.133054,371.50727 61.529647,350.41816 51.926545,327.06945 42.323443,303.53243 33.285247,277.17128 24.811922,247.98538 Z"
         id="rect850" />
      <path
         id="path881"
         style="font-style:normal;font-variant:normal;font-weight:bold;font-stretch:normal;font-size:282.44418335px;line-height:36.77658463px;font-family:Ubuntu;-inkscape-font-specification:'Ubuntu Bold';letter-spacing:0px;word-spacing:0px;fill:#ffffff;fill-opacity:1;stroke:none;stroke-width:1.47106338px;stroke-linecap:butt;stroke-linejoin:miter;stroke-opacity:1"
         d="m 498.24613,374.20309 q 0,-40.67196 -29.93908,-40.67196 -6.49622,0 -12.99243,1.69466 -6.21378,1.69467 -10.16799,4.23667 v 76.54237 q 3.10688,0.56489 7.90843,1.12978 4.80155,0.28244 10.45044,0.28244 17.22909,0 25.98486,-11.86265 8.75577,-11.86266 8.75577,-31.35131 z m 42.93152,1.12978 q 0,17.79398 -5.36644,32.19864 -5.084,14.40465 -14.96954,24.57264 -9.88555,10.16799 -24.2902,15.81687 -14.40466,5.36644 -32.76353,5.36644 -7.62599,0 -16.09932,-0.84733 -8.19088,-0.56489 -16.38176,-1.69466 -7.90844,-1.12978 -15.25198,-2.542 -7.34355,-1.69467 -12.99244,-3.38933 V 237.21766 l 42.08419,-6.77866 v 74.00038 q 7.0611,-3.10689 14.68709,-4.80155 7.626,-1.69467 16.38177,-1.69467 15.81687,0 27.96197,5.64889 12.1451,5.36644 20.33598,15.53443 8.19088,10.16799 12.42755,24.57264 4.23666,14.12221 4.23666,31.63375 z" />
      <path
         id="path883"
         style="font-style:normal;font-variant:normal;font-weight:bold;font-stretch:normal;font-size:282.44418335px;line-height:36.77658463px;font-family:Ubuntu;-inkscape-font-specification:'Ubuntu Bold';letter-spacing:0px;word-spacing:0px;fill:#ffffff;fill-opacity:1;stroke:none;stroke-width:1.47106338px;stroke-linecap:butt;stroke-linejoin:miter;stroke-opacity:1"
         d="m 712.62076,375.05042 q 0,17.51154 -5.08399,32.19864 -5.084,14.40465 -14.6871,24.85509 -9.6031,10.16799 -23.16043,15.81687 -13.27487,5.64889 -29.93908,5.64889 -16.38176,0 -29.93908,-5.64889 -13.27488,-5.64888 -22.87798,-15.81687 -9.6031,-10.45044 -14.96954,-24.85509 -5.36644,-14.6871 -5.36644,-32.19864 0,-17.51154 5.36644,-31.91619 5.64888,-14.40465 15.25198,-24.57264 9.88555,-10.16799 23.16043,-15.81688 13.55732,-5.64888 29.37419,-5.64888 16.09932,0 29.3742,5.64888 13.55732,5.64889 23.16042,15.81688 9.6031,10.16799 14.96954,24.57264 5.36644,14.40465 5.36644,31.91619 z m -42.93152,0 q 0,-19.48864 -7.90843,-30.50397 -7.626,-11.29776 -22.03065,-11.29776 -14.40465,0 -22.31309,11.29776 -7.90844,11.01533 -7.90844,30.50397 0,19.48865 7.90844,31.06886 7.90844,11.29777 22.31309,11.29777 14.40465,0 22.03065,-11.29777 7.90843,-11.58021 7.90843,-31.06886 z" />
      <path
         id="path885"
         style="font-style:normal;font-variant:normal;font-weight:bold;font-stretch:normal;font-size:282.44418335px;line-height:36.77658463px;font-family:Ubuntu;-inkscape-font-specification:'Ubuntu Bold';letter-spacing:0px;word-spacing:0px;fill:#ffffff;fill-opacity:1;stroke:none;stroke-width:1.47106338px;stroke-linecap:butt;stroke-linejoin:miter;stroke-opacity:1"
         d="M 799.04781,346.24112 828.422,301.05005 h 43.49641 l -50.83996,71.45838 q 16.94665,21.18331 30.78642,41.23685 13.83976,20.05353 22.03064,35.87041 h -45.19106 q -2.25956,-4.23666 -5.64889,-10.45044 -3.38933,-6.49621 -7.62599,-13.27487 -4.23666,-7.06111 -9.03822,-13.83977 -4.5191,-7.0611 -9.03821,-12.70999 -4.23666,5.36644 -8.75577,11.86266 -4.23666,6.49622 -8.19088,13.27488 -3.95422,6.49621 -7.90844,12.99243 -3.67177,6.49622 -6.49621,12.1451 h -42.93152 q 3.38933,-7.06111 9.32066,-16.66421 5.93133,-9.6031 12.70999,-19.77109 7.0611,-10.45044 14.68709,-20.61843 7.626,-10.45043 14.96955,-19.48864 -12.70999,-17.79399 -25.41998,-35.87042 -12.70999,-18.35887 -25.13753,-36.15285 h 45.47351 z" />
    </g>
  </g>
  <g
     id="g1161"
     style="display:none"
     transform="translate(318.14599,30.04432)">
    <g
       style="fill:#000000"
       transform="translate(14.21874,-111.50486)"
       id="g1194">
      <path
         style="opacity:1;fill:#000000;fill-opacity:1;fill-rule:nonzero;stroke:none;stroke-width:22.41373444;stroke-linecap:square;stroke-linejoin:round;stroke-miterlimit:4;stroke-dasharray:none;stroke-dashoffset:0;stroke-opacity:1;paint-order:stroke fill markers"
         d="m 38.28125,603.71875 c -62.815748,0 -113.384766,50.56902 -113.384766,113.38477 V 1911.8828 c 0,62.8158 50.569018,113.3848 113.384766,113.3848 H 1314.3965 c 62.8157,0 113.3867,-50.569 113.3867,-113.3848 V 717.10352 c 0,-62.81575 -50.571,-113.38477 -113.3867,-113.38477 z m 934.82422,248.54492 v 165.46293 h 191.08403 v 132.3711 H 973.10547 v 197.4882 c 0,33.4485 5.69335,60.1358 17.08008,80.0625 12.09835,19.9268 35.93995,29.8907 71.52345,29.8907 17.0801,0 34.5149,-1.4229 52.3066,-4.2696 18.5035,-3.5583 35.2288,-8.1855 50.1739,-13.8789 l 22.416,123.8321 c -19.2151,7.8283 -40.5637,14.5879 -64.0489,20.2812 -23.4851,5.6934 -52.3085,8.541 -86.4687,8.541 -43.4119,0 -79.35155,-5.6933 -107.81837,-17.0801 -28.46681,-12.0983 -51.24022,-28.467 -68.32031,-49.1054 -17.08009,-21.3501 -29.17822,-46.9712 -36.29492,-76.8614 -6.40503,-29.8901 -9.60742,-62.9821 -9.60742,-99.2773 V 877.88281 Z M 171.41016,1017.7266 h 168.66601 c 7.1167,27.7551 15.30101,58.0014 24.55274,90.7382 9.96339,32.0252 20.28198,64.7625 30.95703,98.211 10.67505,32.7368 21.35031,64.7607 32.02539,96.0742 11.38671,31.3135 22.062,59.7803 32.02539,85.4004 9.2517,-25.6201 18.85888,-54.0869 28.82226,-85.4004 9.96339,-31.3135 19.57054,-63.3374 28.82227,-96.0742 9.96336,-33.4485 19.21579,-66.1858 27.75586,-98.211 9.2517,-32.7368 17.43603,-62.9831 24.55273,-90.7382 h 164.39454 c -32.02517,108.1739 -65.47385,209.5861 -100.34571,304.2382 -34.87183,94.6522 -72.94575,186.4592 -114.22265,275.418 -14.94506,32.0252 -29.88891,59.0671 -44.83399,81.1289 -14.94508,22.7735 -31.31372,41.2783 -49.10547,55.5117 -17.79177,14.9451 -38.07421,25.6204 -60.84765,32.0254 -22.06179,7.1167 -48.03952,10.6739 -77.92969,10.6739 -24.90845,0 -48.0366,-2.491 -69.38672,-7.4727 -20.63844,-4.27 -37.7185,-9.252 -51.24023,-14.9453 l 27.7539,-127.0332 c 16.36843,5.6933 30.95948,9.6091 43.76953,11.7441 12.81008,2.135 26.33106,3.2012 40.56446,3.2012 28.46682,0 50.17213,-7.8276 65.11718,-23.4844 15.65677,-14.9451 28.823,-35.9389 39.49805,-62.9824 -36.29518,-71.167 -72.58956,-150.874 -108.88477,-239.1211 -36.29518,-88.9588 -70.45529,-188.5934 -102.48046,-298.9023 z"
         transform="matrix(0.26458333,0,0,0.26458333,-283.26561,-173.63523)"
         id="rect1149" />
      <path
         d="m 236.57878,173.17287 q 0,-40.67196 -29.93909,-40.67196 -6.49621,0 -12.99243,1.69466 -6.21377,1.69467 -10.16799,4.23666 v 76.54238 q 3.10689,0.56489 7.90844,1.12977 4.80155,0.28245 10.45043,0.28245 17.2291,0 25.98487,-11.86266 8.75577,-11.86265 8.75577,-31.3513 z m 42.93151,1.12977 q 0,17.79399 -5.36644,32.19864 -5.08399,14.40465 -14.96954,24.57265 -9.88555,10.16799 -24.2902,15.81687 -14.40465,5.36644 -32.76352,5.36644 -7.626,0 -16.09932,-0.84733 -8.19088,-0.56489 -16.38177,-1.69467 -7.90843,-1.12978 -15.25198,-2.542 -7.34355,-1.69466 -12.99243,-3.38933 V 36.187439 l 42.08418,-6.778661 v 74.000372 q 7.0611,-3.10688 14.6871,-4.801547 7.62599,-1.694665 16.38176,-1.694665 15.81687,0 27.96197,5.648882 12.1451,5.36644 20.33598,15.53443 8.19089,10.16799 12.42755,24.57265 4.23666,14.1222 4.23666,31.63374 z"
         style="font-style:normal;font-variant:normal;font-weight:bold;font-stretch:normal;font-size:282.44418335px;line-height:36.77658463px;font-family:Ubuntu;-inkscape-font-specification:'Ubuntu Bold';letter-spacing:0px;word-spacing:0px;fill:#000000;fill-opacity:1;stroke:none;stroke-width:1.47106338px;stroke-linecap:butt;stroke-linejoin:miter;stroke-opacity:1"
         id="path1169" />
      <path
         d="m 450.9534,174.0202 q 0,17.51154 -5.08399,32.19864 -5.084,14.40465 -14.6871,24.85509 -9.6031,10.16799 -23.16042,15.81687 -13.27488,5.64888 -29.93909,5.64888 -16.38176,0 -29.93908,-5.64888 -13.27488,-5.64888 -22.87798,-15.81687 -9.6031,-10.45044 -14.96954,-24.85509 -5.36644,-14.6871 -5.36644,-32.19864 0,-17.51154 5.36644,-31.91619 5.64888,-14.40466 15.25199,-24.57265 9.88554,-10.16799 23.16042,-15.81687 13.55732,-5.648885 29.37419,-5.648885 16.09932,0 29.3742,5.648885 13.55732,5.64888 23.16042,15.81687 9.6031,10.16799 14.96954,24.57265 5.36644,14.40465 5.36644,31.91619 z m -42.93151,0 q 0,-19.48865 -7.90844,-30.50397 -7.62599,-11.29777 -22.03065,-11.29777 -14.40465,0 -22.31309,11.29777 -7.90843,11.01532 -7.90843,30.50397 0,19.48865 7.90843,31.06886 7.90844,11.29777 22.31309,11.29777 14.40466,0 22.03065,-11.29777 7.90844,-11.58021 7.90844,-31.06886 z"
         style="font-style:normal;font-variant:normal;font-weight:bold;font-stretch:normal;font-size:282.44418335px;line-height:36.77658463px;font-family:Ubuntu;-inkscape-font-specification:'Ubuntu Bold';letter-spacing:0px;word-spacing:0px;fill:#000000;fill-opacity:1;stroke:none;stroke-width:1.47106338px;stroke-linecap:butt;stroke-linejoin:miter;stroke-opacity:1"
         id="path1171" />
      <path
         d="m 537.38045,145.21089 29.37419,-45.19107 h 43.49641 L 559.4111,171.4782 q 16.94665,21.18332 30.78641,41.23685 13.83977,20.05354 22.03065,35.87041 h -45.19107 q -2.25956,-4.23666 -5.64889,-10.45043 -3.38933,-6.49622 -7.62599,-13.27488 -4.23666,-7.0611 -9.03821,-13.83976 -4.51911,-7.06111 -9.03822,-12.70999 -4.23666,5.36644 -8.75577,11.86266 -4.23666,6.49621 -8.19088,13.27487 -3.95422,6.49622 -7.90843,12.99243 -3.67178,6.49622 -6.49622,12.1451 h -42.93152 q 3.38933,-7.0611 9.32066,-16.6642 5.93133,-9.6031 12.70999,-19.7711 7.0611,-10.45043 14.6871,-20.61842 7.62599,-10.45044 14.96954,-19.48865 -12.70999,-17.79398 -25.41998,-35.87041 -12.70999,-18.35887 -25.13753,-36.15286 h 45.47351 z"
         style="font-style:normal;font-variant:normal;font-weight:bold;font-stretch:normal;font-size:282.44418335px;line-height:36.77658463px;font-family:Ubuntu;-inkscape-font-specification:'Ubuntu Bold';letter-spacing:0px;word-spacing:0px;fill:#000000;fill-opacity:1;stroke:none;stroke-width:1.47106338px;stroke-linecap:butt;stroke-linejoin:miter;stroke-opacity:1"
         id="path1173" />
    </g>
  </g>
</svg>
